EncodeNew-Light Extended.ufo
<glyph name="ampersand" format="1">
  <advance width="810"/>
  <unicode hex="0026"/>
  <outline>
    <contour>
      <point x="810" y="17" type="line"/>
      <point x="383" y="321" type="line" smooth="yes"/>
      <point x="246" y="419"/>
      <point x="217" y="467"/>
      <point x="217" y="545" type="curve" smooth="yes"/>
      <point x="217" y="653"/>
      <point x="282" y="716"/>
      <point x="439" y="716" type="curve" smooth="yes"/>
      <point x="495" y="716"/>
      <point x="542" y="709"/>
      <point x="582" y="697" type="curve"/>
      <point x="582" y="731" type="line"/>
      <point x="545" y="742"/>
      <point x="497" y="749"/>
      <point x="440" y="749" type="curve" smooth="yes"/>
      <point x="264" y="749"/>
      <point x="181" y="673"/>
      <point x="181" y="545" type="curve" smooth="yes"/>
      <point x="181" y="454"/>
      <point x="225" y="393"/>
      <point x="365" y="294" type="curve" smooth="yes"/>
      <point x="792" y="-10" type="line"/>
    </contour>
    <contour>
      <point x="575" y="-9"/>
      <point x="680" y="81"/>
      <point x="680" y="238" type="curve" smooth="yes"/>
      <point x="680" y="287"/>
      <point x="672" y="335"/>
      <point x="655" y="380" type="curve"/>
      <point x="620" y="380" type="line"/>
      <point x="637" y="335"/>
      <point x="647" y="285"/>
      <point x="647" y="239" type="curve" smooth="yes"/>
      <point x="647" y="98"/>
      <point x="554" y="24"/>
      <point x="380" y="24" type="curve" smooth="yes"/>
      <point x="190" y="24"/>
      <point x="123" y="101"/>
      <point x="123" y="203" type="curve" smooth="yes"/>
      <point x="123" y="285"/>
      <point x="165" y="345"/>
      <point x="260" y="382" type="curve"/>
      <point x="239" y="411" type="line"/>
      <point x="139" y="369"/>
      <point x="87" y="296"/>
      <point x="87" y="200" type="curve" smooth="yes"/>
      <point x="87" y="80"/>
      <point x="174" y="-9"/>
      <point x="379" y="-9" type="curve" smooth="yes"/>
    </contour>
  </outline>
</glyph>
<glyph name="zero" format="1">
  <advance width="600"/>
  <unicode hex="0030"/>
  <note>
    600
  </note>
  <outline>
    <contour>
      <point x="445" y="-9"/>
      <point x="541" y="91"/>
      <point x="541" y="370" type="curve" smooth="yes"/>
      <point x="541" y="649"/>
      <point x="448" y="749"/>
      <point x="300" y="749" type="curve" smooth="yes"/>
      <point x="152" y="749"/>
      <point x="59" y="649"/>
      <point x="59" y="370" type="curve" smooth="yes"/>
      <point x="59" y="91"/>
      <point x="155" y="-9"/>
      <point x="300" y="-9" type="curve" smooth="yes"/>
    </contour>
    <contour>
      <point x="177" y="24"/>
      <point x="95" y="103"/>
      <point x="95" y="372" type="curve" smooth="yes"/>
      <point x="95" y="637"/>
      <point x="177" y="716"/>
      <point x="300" y="716" type="curve" smooth="yes"/>
      <point x="423" y="716"/>
      <point x="505" y="637"/>
      <point x="505" y="368" type="curve" smooth="yes"/>
      <point x="505" y="103"/>
      <point x="423" y="24"/>
      <point x="300" y="24" type="curve" smooth="yes"/>
    </contour>
  </outline>
</glyph>
<glyph name="one" format="1">
  <advance width="600"/>
  <unicode hex="0031"/>
  <outline>
    <contour>
      <point x="349" y="0" type="line"/>
      <point x="349" y="742" type="line"/>
      <point x="326" y="742" type="line"/>
      <point x="110" y="588" type="line"/>
      <point x="110" y="548" type="line"/>
      <point x="326" y="700" type="line"/>
      <point x="315" y="705" type="line"/>
      <point x="315" y="0" type="line"/>
    </contour>
    <contour>
      <point x="544" y="0" type="line"/>
      <point x="544" y="32" type="line"/>
      <point x="110" y="32" type="line"/>
      <point x="110" y="0" type="line"/>
    </contour>
  </outline>
</glyph>
<glyph name="two" format="1">
  <advance width="600"/>
  <unicode hex="0032"/>
  <outline>
    <contour>
      <point x="546" y="0" type="line"/>
      <point x="546" y="32" type="line"/>
      <point x="110" y="32" type="line"/>
      <point x="115" y="20" type="line"/>
      <point x="347" y="279" type="line" smooth="yes"/>
      <point x="454" y="399"/>
      <point x="492" y="466"/>
      <point x="492" y="554" type="curve" smooth="yes"/>
      <point x="492" y="687"/>
      <point x="407" y="749"/>
      <point x="257" y="749" type="curve" smooth="yes"/>
      <point x="181" y="749"/>
      <point x="116" y="738"/>
      <point x="64" y="719" type="curve"/>
      <point x="64" y="685" type="line"/>
      <point x="123" y="706"/>
      <point x="186" y="716"/>
      <point x="257" y="716" type="curve" smooth="yes"/>
      <point x="388" y="716"/>
      <point x="457" y="665"/>
      <point x="457" y="552" type="curve" smooth="yes"/>
      <point x="457" y="479"/>
      <point x="422" y="412"/>
      <point x="325" y="303" type="curve" smooth="yes"/>
      <point x="73" y="20" type="line"/>
      <point x="73" y="0" type="line"/>
    </contour>
  </outline>
</glyph>
<glyph name="three" format="1">
  <advance width="600"/>
  <unicode hex="0033"/>
  <outline>
    <contour>
      <point x="449" y="-9"/>
      <point x="540" y="71"/>
      <point x="540" y="202" type="curve" smooth="yes"/>
      <point x="540" y="311"/>
      <point x="464" y="380"/>
      <point x="323" y="392" type="curve"/>
      <point x="323" y="377" type="line"/>
      <point x="437" y="399"/>
      <point x="513" y="463"/>
      <point x="513" y="566" type="curve" smooth="yes"/>
      <point x="513" y="680"/>
      <point x="424" y="749"/>
      <point x="272" y="749" type="curve" smooth="yes"/>
      <point x="204" y="749"/>
      <point x="141" y="740"/>
      <point x="80" y="722" type="curve"/>
      <point x="80" y="688" type="line"/>
      <point x="146" y="708"/>
      <point x="209" y="716"/>
      <point x="271" y="716" type="curve" smooth="yes"/>
      <point x="404" y="716"/>
      <point x="478" y="660"/>
      <point x="478" y="565" type="curve" smooth="yes"/>
      <point x="478" y="450"/>
      <point x="385" y="397"/>
      <point x="218" y="397" type="curve" smooth="yes"/>
      <point x="178" y="397" type="line"/>
      <point x="178" y="364" type="line"/>
      <point x="285" y="364" type="line" smooth="yes"/>
      <point x="432" y="364"/>
      <point x="505" y="306"/>
      <point x="505" y="203" type="curve" smooth="yes"/>
      <point x="505" y="89"/>
      <point x="426" y="24"/>
      <point x="253" y="24" type="curve" smooth="yes"/>
      <point x="191" y="24"/>
      <point x="121" y="35"/>
      <point x="52" y="57" type="curve"/>
      <point x="52" y="23" type="line"/>
      <point x="114" y="2"/>
      <point x="187" y="-9"/>
      <point x="251" y="-9" type="curve" smooth="yes"/>
    </contour>
  </outline>
</glyph>
<glyph name="four" format="1">
  <advance width="600"/>
  <unicode hex="0034"/>
  <outline>
    <contour>
      <point x="581" y="192" type="line"/>
      <point x="581" y="224" type="line"/>
      <point x="53" y="224" type="line"/>
      <point x="62" y="211" type="line"/>
      <point x="389" y="740" type="line"/>
      <point x="350" y="740" type="line"/>
      <point x="24" y="212" type="line"/>
      <point x="24" y="192" type="line"/>
    </contour>
    <contour>
      <point x="461" y="0" type="line"/>
      <point x="461" y="490" type="line"/>
      <point x="434" y="490" type="line"/>
      <point x="427" y="224" type="line"/>
      <point x="427" y="0" type="line"/>
    </contour>
  </outline>
</glyph>
<glyph name="five" format="1">
  <advance width="600"/>
  <unicode hex="0035"/>
  <outline>
    <contour>
      <point x="450" y="-9"/>
      <point x="549" y="66"/>
      <point x="549" y="206" type="curve" smooth="yes"/>
      <point x="549" y="335"/>
      <point x="459" y="401"/>
      <point x="213" y="415" type="curve" smooth="yes"/>
      <point x="107" y="421" type="line"/>
      <point x="132" y="399" type="line"/>
      <point x="156" y="718" type="line"/>
      <point x="138" y="708" type="line"/>
      <point x="517" y="708" type="line"/>
      <point x="517" y="740" type="line"/>
      <point x="125" y="740" type="line"/>
      <point x="97" y="388" type="line"/>
      <point x="204" y="382" type="line" smooth="yes"/>
      <point x="435" y="369"/>
      <point x="514" y="316"/>
      <point x="514" y="206" type="curve" smooth="yes"/>
      <point x="514" y="84"/>
      <point x="429" y="24"/>
      <point x="262" y="24" type="curve" smooth="yes"/>
      <point x="198" y="24"/>
      <point x="128" y="35"/>
      <point x="61" y="57" type="curve"/>
      <point x="61" y="23" type="line"/>
      <point x="121" y="3"/>
      <point x="194" y="-9"/>
      <point x="260" y="-9" type="curve" smooth="yes"/>
    </contour>
  </outline>
</glyph>
<glyph name="six" format="1">
  <advance width="600"/>
  <unicode hex="0036"/>
  <outline>
    <contour>
      <point x="468" y="-9"/>
      <point x="560" y="61"/>
      <point x="560" y="201" type="curve" smooth="yes"/>
      <point x="560" y="342"/>
      <point x="471" y="414"/>
      <point x="317" y="414" type="curve" smooth="yes"/>
      <point x="241" y="414"/>
      <point x="158" y="389"/>
      <point x="105" y="348" type="curve"/>
      <point x="105" y="311" type="line"/>
      <point x="160" y="360"/>
      <point x="250" y="381"/>
      <point x="315" y="381" type="curve" smooth="yes"/>
      <point x="452" y="381"/>
      <point x="525" y="322"/>
      <point x="525" y="200" type="curve" smooth="yes"/>
      <point x="525" y="79"/>
      <point x="450" y="24"/>
      <point x="339" y="24" type="curve" smooth="yes"/>
      <point x="196" y="24"/>
      <point x="114" y="112"/>
      <point x="114" y="346" type="curve" smooth="yes"/>
      <point x="114" y="352" type="line" smooth="yes"/>
      <point x="114" y="599"/>
      <point x="206" y="716"/>
      <point x="388" y="716" type="curve" smooth="yes"/>
      <point x="429" y="716"/>
      <point x="485" y="710"/>
      <point x="527" y="692" type="curve"/>
      <point x="527" y="726" type="line"/>
      <point x="486" y="743"/>
      <point x="434" y="749"/>
      <point x="387" y="749" type="curve" smooth="yes"/>
      <point x="187" y="749"/>
      <point x="79" y="617"/>
      <point x="79" y="347" type="curve" smooth="yes"/>
      <point x="79" y="93"/>
      <point x="177" y="-9"/>
      <point x="339" y="-9" type="curve" smooth="yes"/>
    </contour>
  </outline>
</glyph>
<glyph name="seven" format="1">
  <advance width="600"/>
  <unicode hex="0037"/>
  <outline>
    <contour>
      <point x="169" y="0" type="line"/>
      <point x="539" y="720" type="line"/>
      <point x="539" y="740" type="line"/>
      <point x="32" y="740" type="line"/>
      <point x="32" y="708" type="line"/>
      <point x="511" y="708" type="line"/>
      <point x="502" y="721" type="line"/>
      <point x="131" y="0" type="line"/>
    </contour>
  </outline>
</glyph>
<glyph name="eight" format="1">
  <advance width="600"/>
  <unicode hex="0038"/>
  <outline>
    <contour>
      <point x="466" y="-9"/>
      <point x="555" y="66"/>
      <point x="555" y="188" type="curve" smooth="yes"/>
      <point x="555" y="292"/>
      <point x="487" y="355"/>
      <point x="319" y="385" type="curve" smooth="yes"/>
      <point x="163" y="413"/>
      <point x="108" y="465"/>
      <point x="108" y="562" type="curve" smooth="yes"/>
      <point x="108" y="658"/>
      <point x="172" y="716"/>
      <point x="296" y="716" type="curve" smooth="yes"/>
      <point x="419" y="716"/>
      <point x="493" y="663"/>
      <point x="493" y="561" type="curve" smooth="yes"/>
      <point x="493" y="472"/>
      <point x="449" y="417"/>
      <point x="346" y="377" type="curve"/>
      <point x="377" y="360" type="line"/>
      <point x="473" y="396"/>
      <point x="527" y="463"/>
      <point x="527" y="562" type="curve" smooth="yes"/>
      <point x="527" y="679"/>
      <point x="442" y="749"/>
      <point x="297" y="749" type="curve" smooth="yes"/>
      <point x="156" y="749"/>
      <point x="72" y="679"/>
      <point x="72" y="561" type="curve" smooth="yes"/>
      <point x="72" y="450"/>
      <point x="139" y="384"/>
      <point x="313" y="352" type="curve" smooth="yes"/>
      <point x="461" y="325"/>
      <point x="519" y="278"/>
      <point x="519" y="186" type="curve" smooth="yes"/>
      <point x="519" y="81"/>
      <point x="444" y="24"/>
      <point x="306" y="24" type="curve" smooth="yes"/>
      <point x="160" y="24"/>
      <point x="80" y="81"/>
      <point x="80" y="191" type="curve" smooth="yes"/>
      <point x="80" y="279"/>
      <point x="134" y="350"/>
      <point x="239" y="379" type="curve"/>
      <point x="204" y="396" type="line"/>
      <point x="104" y="362"/>
      <point x="45" y="293"/>
      <point x="45" y="189" type="curve" smooth="yes"/>
      <point x="45" y="59"/>
      <point x="138" y="-9"/>
      <point x="305" y="-9" type="curve" smooth="yes"/>
    </contour>
  </outline>
</glyph>
<glyph name="nine" format="1">
  <advance width="600"/>
  <unicode hex="0039"/>
  <outline>
    <contour>
      <point x="132" y="749"/>
      <point x="40" y="679"/>
      <point x="40" y="539" type="curve" smooth="yes"/>
      <point x="40" y="398"/>
      <point x="129" y="326"/>
      <point x="283" y="326" type="curve" smooth="yes"/>
      <point x="359" y="326"/>
      <point x="442" y="351"/>
      <point x="495" y="392" type="curve"/>
      <point x="495" y="429" type="line"/>
      <point x="440" y="380"/>
      <point x="350" y="359"/>
      <point x="285" y="359" type="curve" smooth="yes"/>
      <point x="148" y="359"/>
      <point x="75" y="418"/>
      <point x="75" y="540" type="curve" smooth="yes"/>
      <point x="75" y="661"/>
      <point x="150" y="716"/>
      <point x="261" y="716" type="curve" smooth="yes"/>
      <point x="404" y="716"/>
      <point x="486" y="628"/>
      <point x="486" y="394" type="curve" smooth="yes"/>
      <point x="486" y="388" type="line" smooth="yes"/>
      <point x="486" y="141"/>
      <point x="394" y="24"/>
      <point x="212" y="24" type="curve" smooth="yes"/>
      <point x="171" y="24"/>
      <point x="115" y="30"/>
      <point x="73" y="48" type="curve"/>
      <point x="73" y="14" type="line"/>
      <point x="114" y="-3"/>
      <point x="166" y="-9"/>
      <point x="213" y="-9" type="curve" smooth="yes"/>
      <point x="413" y="-9"/>
      <point x="521" y="123"/>
      <point x="521" y="393" type="curve" smooth="yes"/>
      <point x="521" y="647"/>
      <point x="423" y="749"/>
      <point x="261" y="749" type="curve" smooth="yes"/>
    </contour>
  </outline>
</glyph>
<glyph name="A" format="1">
  <advance width="715"/>
  <unicode hex="0041"/>
  <note>
    520
  </note>
  <outline>
    <contour>
      <point x="58" y="0" type="line"/>
      <point x="363" y="720" type="line"/>
      <point x="351" y="720" type="line"/>
      <point x="656" y="0" type="line"/>
      <point x="694" y="0" type="line"/>
      <point x="379" y="740" type="line"/>
      <point x="336" y="740" type="line"/>
      <point x="21" y="0" type="line"/>
    </contour>
    <contour>
      <point x="557" y="264" type="line"/>
      <point x="547" y="297" type="line"/>
      <point x="168" y="297" type="line"/>
      <point x="158" y="264" type="line"/>
    </contour>
    <contour>
      <point x="694" y="0" type="move" name="ogonek"/>
    </contour>
    <contour>
      <point x="358" y="0" type="move" name="bottom"/>
    </contour>
    <contour>
      <point x="358" y="760" type="move" name="top"/>
    </contour>
  </outline>
</glyph>
<glyph name="B" format="1">
  <advance width="665"/>
  <unicode hex="0042"/>
  <outline>
    <contour>
      <point x="533" y="-5"/>
      <point x="622" y="66"/>
      <point x="622" y="200" type="curve" smooth="yes"/>
      <point x="622" y="299"/>
      <point x="568" y="372"/>
      <point x="433" y="385" type="curve"/>
      <point x="430" y="377" type="line"/>
      <point x="552" y="393"/>
      <point x="600" y="460"/>
      <point x="600" y="553" type="curve" smooth="yes"/>
      <point x="600" y="682"/>
      <point x="516" y="747"/>
      <point x="316" y="747" type="curve" smooth="yes"/>
      <point x="231" y="747"/>
      <point x="175" y="741"/>
      <point x="105" y="727" type="curve"/>
      <point x="105" y="8" type="line"/>
      <point x="182" y="-2"/>
      <point x="231" y="-5"/>
      <point x="298" y="-5" type="curve" smooth="yes"/>
    </contour>
    <contour>
      <point x="234" y="28"/>
      <point x="188" y="31"/>
      <point x="139" y="39" type="curve"/>
      <point x="139" y="700" type="line"/>
      <point x="187" y="709"/>
      <point x="238" y="714"/>
      <point x="317" y="714" type="curve" smooth="yes"/>
      <point x="494" y="714"/>
      <point x="566" y="668"/>
      <point x="566" y="553" type="curve" smooth="yes"/>
      <point x="566" y="443"/>
      <point x="493" y="397"/>
      <point x="347" y="397" type="curve" smooth="yes"/>
      <point x="131" y="397" type="line"/>
      <point x="131" y="364" type="line"/>
      <point x="354" y="364" type="line" smooth="yes"/>
      <point x="511" y="364"/>
      <point x="587" y="315"/>
      <point x="587" y="202" type="curve" smooth="yes"/>
      <point x="587" y="87"/>
      <point x="521" y="28"/>
      <point x="299" y="28" type="curve" smooth="yes"/>
    </contour>
    <contour>
      <point x="339" y="740" type="move" name="top"/>
    </contour>
    <contour>
      <point x="339" y="0" type="move" name="bottom"/>
    </contour>
  </outline>
</glyph>
<glyph name="C" format="1">
  <advance width="630"/>
  <unicode hex="0043"/>
  <outline>
    <contour>
      <point x="482" y="-9"/>
      <point x="544" y="1"/>
      <point x="606" y="24" type="curve"/>
      <point x="606" y="58" type="line"/>
      <point x="532" y="32"/>
      <point x="476" y="24"/>
      <point x="410" y="24" type="curve" smooth="yes"/>
      <point x="227" y="24"/>
      <point x="102" y="109"/>
      <point x="102" y="371" type="curve" smooth="yes"/>
      <point x="102" y="619"/>
      <point x="221" y="716"/>
      <point x="417" y="716" type="curve" smooth="yes"/>
      <point x="482" y="716"/>
      <point x="546" y="706"/>
      <point x="606" y="688" type="curve"/>
      <point x="606" y="722" type="line"/>
      <point x="545" y="740"/>
      <point x="489" y="749"/>
      <point x="418" y="749" type="curve" smooth="yes"/>
      <point x="205" y="749"/>
      <point x="66" y="636"/>
      <point x="66" y="369" type="curve" smooth="yes"/>
      <point x="66" y="88"/>
      <point x="212" y="-9"/>
      <point x="409" y="-9" type="curve" smooth="yes"/>
    </contour>
    <contour>
      <point x="377" y="760" type="move" name="top"/>
    </contour>
    <contour>
      <point x="387" y="0" type="move" name="bottom"/>
    </contour>
  </outline>
</glyph>
<glyph name="D" format="1">
  <advance width="759"/>
  <unicode hex="0044"/>
  <outline>
    <contour>
      <point x="559" y="-5"/>
      <point x="693" y="119"/>
      <point x="693" y="370" type="curve" smooth="yes"/>
      <point x="693" y="621"/>
      <point x="559" y="747"/>
      <point x="305" y="747" type="curve" smooth="yes"/>
      <point x="244" y="747"/>
      <point x="172" y="741"/>
      <point x="105" y="727" type="curve"/>
      <point x="105" y="8" type="line"/>
      <point x="182" y="-2"/>
      <point x="231" y="-5"/>
      <point x="298" y="-5" type="curve" smooth="yes"/>
    </contour>
    <contour>
      <point x="229" y="28"/>
      <point x="182" y="32"/>
      <point x="139" y="39" type="curve"/>
      <point x="139" y="700" type="line"/>
      <point x="198" y="709"/>
      <point x="250" y="714"/>
      <point x="302" y="714" type="curve" smooth="yes"/>
      <point x="537" y="714"/>
      <point x="657" y="604"/>
      <point x="657" y="370" type="curve" smooth="yes"/>
      <point x="657" y="136"/>
      <point x="537" y="28"/>
      <point x="299" y="28" type="curve" smooth="yes"/>
    </contour>
    <contour>
      <point x="379" y="370" type="move" name="center"/>
    </contour>
    <contour>
      <point x="105" y="381" type="move" name="stroke"/>
    </contour>
    <contour>
      <point x="350" y="760" type="move" name="top"/>
    </contour>
    <contour>
      <point x="350" y="0" type="move" name="bottom"/>
    </contour>
  </outline>
</glyph>
<glyph name="E" format="1">
  <advance width="636"/>
  <unicode hex="0045"/>
  <outline>
    <contour>
      <point x="585" y="0" type="line"/>
      <point x="585" y="33" type="line"/>
      <point x="139" y="33" type="line"/>
      <point x="139" y="707" type="line"/>
      <point x="580" y="707" type="line"/>
      <point x="580" y="740" type="line"/>
      <point x="105" y="740" type="line"/>
      <point x="105" y="0" type="line"/>
    </contour>
    <contour>
      <point x="530" y="364" type="line"/>
      <point x="530" y="397" type="line"/>
      <point x="125" y="397" type="line"/>
      <point x="125" y="364" type="line"/>
    </contour>
    <contour>
      <point x="545" y="0" type="move" name="ogonek"/>
    </contour>
    <contour>
      <point x="353" y="760" type="move" name="top"/>
    </contour>
    <contour>
      <point x="20" y="740" type="move" name="topleft"/>
    </contour>
    <contour>
      <point x="355" y="0" type="move" name="bottom"/>
    </contour>
  </outline>
</glyph>
<glyph name="F" format="1">
  <advance width="613"/>
  <unicode hex="0046"/>
  <outline>
    <contour>
      <point x="139" y="0" type="line"/>
      <point x="139" y="707" type="line"/>
      <point x="575" y="707" type="line"/>
      <point x="575" y="740" type="line"/>
      <point x="105" y="740" type="line"/>
      <point x="105" y="0" type="line"/>
    </contour>
    <contour>
      <point x="525" y="364" type="line"/>
      <point x="525" y="397" type="line"/>
      <point x="135" y="397" type="line"/>
      <point x="135" y="364" type="line"/>
    </contour>
  </outline>
</glyph>
<glyph name="G" format="1">
  <advance width="742"/>
  <unicode hex="0047"/>
  <outline>
    <contour>
      <point x="520" y="-5"/>
      <point x="569" y="-2"/>
      <point x="644" y="10" type="curve"/>
      <point x="644" y="360" type="line"/>
      <point x="610" y="360" type="line"/>
      <point x="610" y="25" type="line"/>
      <point x="621" y="42" type="line"/>
      <point x="576" y="33"/>
      <point x="526" y="28"/>
      <point x="458" y="28" type="curve" smooth="yes"/>
      <point x="225" y="28"/>
      <point x="103" y="139"/>
      <point x="102" y="371" type="curve" smooth="yes"/>
      <point x="101" y="619"/>
      <point x="245" y="716"/>
      <point x="434" y="716" type="curve" smooth="yes"/>
      <point x="488" y="716"/>
      <point x="545" y="710"/>
      <point x="624" y="688" type="curve"/>
      <point x="624" y="722" type="line"/>
      <point x="555" y="740"/>
      <point x="498" y="749"/>
      <point x="432" y="749" type="curve" smooth="yes"/>
      <point x="226" y="749"/>
      <point x="65" y="637"/>
      <point x="66" y="369" type="curve" smooth="yes"/>
      <point x="67" y="119"/>
      <point x="203" y="-5"/>
      <point x="458" y="-5" type="curve" smooth="yes"/>
    </contour>
    <contour>
      <point x="397" y="760" type="move" name="top"/>
    </contour>
    <contour>
      <point x="397" y="0" type="move" name="bottom"/>
    </contour>
  </outline>
</glyph>
<glyph name="H" format="1">
  <advance width="782"/>
  <unicode hex="0048"/>
  <outline>
    <contour>
      <point x="139" y="0" type="line"/>
      <point x="139" y="364" type="line"/>
      <point x="643" y="364" type="line"/>
      <point x="643" y="0" type="line"/>
      <point x="677" y="0" type="line"/>
      <point x="677" y="740" type="line"/>
      <point x="643" y="740" type="line"/>
      <point x="643" y="397" type="line"/>
      <point x="139" y="397" type="line"/>
      <point x="139" y="740" type="line"/>
      <point x="105" y="740" type="line"/>
      <point x="105" y="0" type="line"/>
    </contour>
    <contour>
      <point x="391" y="570" type="move" name="center"/>
    </contour>
    <contour>
      <point x="391" y="760" type="move" name="top"/>
    </contour>
    <contour>
      <point x="20" y="740" type="move" name="topleft"/>
    </contour>
    <contour>
      <point x="391" y="0" type="move" name="bottom"/>
    </contour>
  </outline>
</glyph>
<glyph name="I" format="1">
  <advance width="244"/>
  <unicode hex="0049"/>
  <outline>
    <contour>
      <point x="139" y="0" type="line"/>
      <point x="139" y="740" type="line"/>
      <point x="105" y="740" type="line"/>
      <point x="105" y="0" type="line"/>
    </contour>
    <contour>
      <point x="139" y="0" type="move" name="ogonek"/>
    </contour>
    <contour>
      <point x="122" y="0" type="move" name="bottom"/>
    </contour>
    <contour>
      <point x="122" y="760" type="move" name="top"/>
    </contour>
  </outline>
</glyph>
<glyph name="J" format="1">
  <advance width="244"/>
  <unicode hex="004A"/>
  <outline>
    <contour>
      <point x="103" y="-74"/>
      <point x="132" y="11"/>
      <point x="139" y="125" type="curve"/>
      <point x="139" y="740" type="line"/>
      <point x="105" y="740" type="line"/>
      <point x="105" y="143" type="line" smooth="yes"/>
      <point x="105" y="28"/>
      <point x="72" y="-64"/>
      <point x="-1" y="-152" type="curve"/>
      <point x="23" y="-170" type="line"/>
    </contour>
    <contour>
      <point x="122" y="760" type="move" name="top"/>
    </contour>
    <contour>
      <point x="171" y="0" type="move" name="bottom"/>
    </contour>
  </outline>
</glyph>
<glyph name="K" format="1">
  <advance width="657"/>
  <unicode hex="004B"/>
  <outline>
    <contour>
      <point x="651" y="0" type="line"/>
      <point x="322" y="387" type="line"/>
      <point x="322" y="375" type="line"/>
      <point x="630" y="740" type="line"/>
      <point x="587" y="740" type="line"/>
      <point x="284" y="379" type="line"/>
      <point x="607" y="0" type="line"/>
    </contour>
    <contour>
      <point x="139" y="0" type="line"/>
      <point x="139" y="740" type="line"/>
      <point x="105" y="740" type="line"/>
      <point x="105" y="0" type="line"/>
    </contour>
    <contour>
      <point x="307" y="364" type="line"/>
      <point x="307" y="397" type="line"/>
      <point x="131" y="397" type="line"/>
      <point x="131" y="364" type="line"/>
    </contour>
    <contour>
      <point x="335" y="740" type="move" name="top"/>
    </contour>
    <contour>
      <point x="335" y="0" type="move" name="bottom"/>
    </contour>
  </outline>
</glyph>
<glyph name="L" format="1">
  <advance width="576"/>
  <unicode hex="004C"/>
  <outline>
    <contour>
      <point x="568" y="0" type="line"/>
      <point x="568" y="33" type="line"/>
      <point x="139" y="33" type="line"/>
      <point x="139" y="740" type="line"/>
      <point x="105" y="740" type="line"/>
      <point x="105" y="0" type="line"/>
    </contour>
    <contour>
      <point x="404" y="387" type="move" name="periodcentered"/>
    </contour>
    <contour>
      <point x="122" y="760" type="move" name="top"/>
    </contour>
    <contour>
      <point x="122" y="387" type="move" name="slash"/>
    </contour>
    <contour>
      <point x="374" y="740" type="move" name="caronalt"/>
    </contour>
    <contour>
      <point x="337" y="0" type="move" name="bottom"/>
    </contour>
  </outline>
</glyph>
<glyph name="M" format="1">
  <advance width="928"/>
  <unicode hex="004D"/>
  <outline>
    <contour>
      <point x="140" y="0" type="line"/>
      <point x="140" y="712" type="line"/>
      <point x="120" y="712" type="line"/>
      <point x="445" y="100" type="line"/>
      <point x="483" y="100" type="line"/>
      <point x="807" y="712" type="line"/>
      <point x="788" y="712" type="line"/>
      <point x="788" y="0" type="line"/>
      <point x="821" y="0" type="line"/>
      <point x="821" y="740" type="line"/>
      <point x="784" y="740" type="line"/>
      <point x="457" y="116" type="line"/>
      <point x="473" y="116" type="line"/>
      <point x="144" y="740" type="line"/>
      <point x="107" y="740" type="line"/>
      <point x="107" y="0" type="line"/>
    </contour>
    <contour>
      <point x="464" y="740" type="move" name="top"/>
    </contour>
    <contour>
      <point x="464" y="0" type="move" name="bottom"/>
    </contour>
  </outline>
</glyph>
<glyph name="N" format="1">
  <advance width="797"/>
  <unicode hex="004E"/>
  <outline>
    <contour>
      <point x="138" y="0" type="line"/>
      <point x="138" y="710" type="line"/>
      <point x="123" y="710" type="line"/>
      <point x="655" y="0" type="line"/>
      <point x="692" y="0" type="line"/>
      <point x="692" y="740" type="line"/>
      <point x="659" y="740" type="line"/>
      <point x="659" y="30" type="line"/>
      <point x="674" y="30" type="line"/>
      <point x="142" y="740" type="line"/>
      <point x="105" y="740" type="line"/>
      <point x="105" y="0" type="line"/>
    </contour>
    <contour>
      <point x="399" y="760" type="move" name="top"/>
    </contour>
    <contour>
      <point x="399" y="0" type="move" name="bottom"/>
    </contour>
  </outline>
</glyph>
<glyph name="O" format="1">
  <advance width="780"/>
  <unicode hex="004F"/>
  <outline>
    <contour>
      <point x="578" y="-9"/>
      <point x="714" y="104"/>
      <point x="714" y="370" type="curve" smooth="yes"/>
      <point x="714" y="636"/>
      <point x="581" y="749"/>
      <point x="390" y="749" type="curve" smooth="yes"/>
      <point x="202" y="749"/>
      <point x="66" y="636"/>
      <point x="66" y="370" type="curve" smooth="yes"/>
      <point x="66" y="104"/>
      <point x="199" y="-9"/>
      <point x="390" y="-9" type="curve" smooth="yes"/>
    </contour>
    <contour>
      <point x="220" y="25"/>
      <point x="102" y="121"/>
      <point x="102" y="372" type="curve" smooth="yes"/>
      <point x="102" y="619"/>
      <point x="220" y="715"/>
      <point x="390" y="715" type="curve" smooth="yes"/>
      <point x="560" y="715"/>
      <point x="678" y="619"/>
      <point x="678" y="368" type="curve" smooth="yes"/>
      <point x="678" y="121"/>
      <point x="560" y="25"/>
      <point x="390" y="25" type="curve" smooth="yes"/>
    </contour>
    <contour>
      <point x="390" y="370" type="move" name="center"/>
    </contour>
    <contour>
      <point x="480" y="0" type="move" name="ogonek"/>
    </contour>
    <contour>
      <point x="390" y="760" type="move" name="top"/>
    </contour>
    <contour>
      <point x="479" y="740" type="move" name="topright"/>
    </contour>
    <contour>
      <point x="22" y="740" type="move" name="topleft"/>
    </contour>
    <contour>
      <point x="390" y="0" type="move" name="bottom"/>
    </contour>
  </outline>
</glyph>
<glyph name="P" format="1">
  <advance width="651"/>
  <unicode hex="0050"/>
  <outline>
    <contour>
      <point x="139" y="0" type="line"/>
      <point x="139" y="266" type="line"/>
      <point x="189" y="261"/>
      <point x="227" y="259"/>
      <point x="275" y="259" type="curve" smooth="yes"/>
      <point x="506" y="259"/>
      <point x="601" y="348"/>
      <point x="601" y="505" type="curve" smooth="yes"/>
      <point x="601" y="673"/>
      <point x="494" y="747"/>
      <point x="302" y="747" type="curve" smooth="yes"/>
      <point x="231" y="747"/>
      <point x="175" y="741"/>
      <point x="105" y="727" type="curve"/>
      <point x="105" y="0" type="line"/>
    </contour>
    <contour>
      <point x="223" y="292"/>
      <point x="182" y="295"/>
      <point x="139" y="301" type="curve"/>
      <point x="139" y="700" type="line"/>
      <point x="187" y="709"/>
      <point x="238" y="714"/>
      <point x="302" y="714" type="curve" smooth="yes"/>
      <point x="476" y="714"/>
      <point x="565" y="650"/>
      <point x="565" y="504" type="curve" smooth="yes"/>
      <point x="565" y="365"/>
      <point x="485" y="292"/>
      <point x="275" y="292" type="curve" smooth="yes"/>
    </contour>
  </outline>
</glyph>
<glyph name="Q" format="1">
  <advance width="780"/>
  <unicode hex="0051"/>
  <outline>
    <contour>
      <point x="698" y="-57" type="line"/>
      <point x="577" y="-49"/>
      <point x="434" y="-30"/>
      <point x="346" y="5" type="curve"/>
      <point x="341" y="-4" type="line"/>
      <point x="580" y="-28"/>
      <point x="714" y="98"/>
      <point x="714" y="370" type="curve" smooth="yes"/>
      <point x="714" y="642"/>
      <point x="578" y="749"/>
      <point x="390" y="749" type="curve" smooth="yes"/>
      <point x="202" y="749"/>
      <point x="66" y="636"/>
      <point x="66" y="370" type="curve" smooth="yes"/>
      <point x="66" y="73"/>
      <point x="209" y="-49"/>
      <point x="694" y="-90" type="curve"/>
    </contour>
    <contour>
      <point x="220" y="25"/>
      <point x="102" y="121"/>
      <point x="102" y="372" type="curve" smooth="yes"/>
      <point x="102" y="619"/>
      <point x="220" y="715"/>
      <point x="390" y="715" type="curve" smooth="yes"/>
      <point x="560" y="715"/>
      <point x="678" y="619"/>
      <point x="678" y="368" type="curve" smooth="yes"/>
      <point x="678" y="121"/>
      <point x="560" y="25"/>
      <point x="390" y="25" type="curve" smooth="yes"/>
    </contour>
  </outline>
</glyph>
<glyph name="R" format="1">
  <advance width="719"/>
  <unicode hex="0052"/>
  <outline>
    <contour>
      <point x="139" y="0" type="line"/>
      <point x="139" y="332" type="line"/>
      <point x="189" y="328"/>
      <point x="228" y="325"/>
      <point x="285" y="325" type="curve" smooth="yes"/>
      <point x="502" y="325"/>
      <point x="604" y="396"/>
      <point x="604" y="538" type="curve" smooth="yes"/>
      <point x="604" y="687"/>
      <point x="511" y="747"/>
      <point x="308" y="747" type="curve" smooth="yes"/>
      <point x="220" y="747"/>
      <point x="161" y="738"/>
      <point x="105" y="727" type="curve"/>
      <point x="105" y="0" type="line"/>
    </contour>
    <contour>
      <point x="654" y="0" type="line"/>
      <point x="354" y="354" type="line"/>
      <point x="312" y="354" type="line"/>
      <point x="611" y="0" type="line"/>
    </contour>
    <contour>
      <point x="221" y="358"/>
      <point x="193" y="360"/>
      <point x="139" y="365" type="curve"/>
      <point x="139" y="699" type="line"/>
      <point x="189" y="708"/>
      <point x="232" y="714"/>
      <point x="307" y="714" type="curve" smooth="yes"/>
      <point x="492" y="714"/>
      <point x="570" y="670"/>
      <point x="570" y="536" type="curve" smooth="yes"/>
      <point x="570" y="418"/>
      <point x="489" y="358"/>
      <point x="286" y="358" type="curve" smooth="yes"/>
    </contour>
    <contour>
      <point x="336" y="760" type="move" name="top"/>
    </contour>
    <contour>
      <point x="359" y="0" type="move" name="bottom"/>
    </contour>
  </outline>
</glyph>
<glyph name="S" format="1">
  <advance width="571"/>
  <unicode hex="0053"/>
  <outline>
    <contour>
      <point x="426" y="-9"/>
      <point x="523" y="62"/>
      <point x="523" y="192" type="curve" smooth="yes"/>
      <point x="523" y="294"/>
      <point x="465" y="353"/>
      <point x="292" y="386" type="curve" smooth="yes"/>
      <point x="135" y="416"/>
      <point x="84" y="457"/>
      <point x="84" y="554" type="curve" smooth="yes"/>
      <point x="84" y="658"/>
      <point x="159" y="716"/>
      <point x="307" y="716" type="curve" smooth="yes"/>
      <point x="369" y="716"/>
      <point x="430" y="707"/>
      <point x="492" y="688" type="curve"/>
      <point x="492" y="722" type="line"/>
      <point x="435" y="740"/>
      <point x="372" y="749"/>
      <point x="309" y="749" type="curve" smooth="yes"/>
      <point x="135" y="749"/>
      <point x="48" y="672"/>
      <point x="48" y="552" type="curve" smooth="yes"/>
      <point x="48" y="441"/>
      <point x="111" y="386"/>
      <point x="285" y="352" type="curve" smooth="yes"/>
      <point x="436" y="322"/>
      <point x="487" y="283"/>
      <point x="487" y="191" type="curve" smooth="yes"/>
      <point x="487" y="82"/>
      <point x="410" y="24"/>
      <point x="254" y="24" type="curve" smooth="yes"/>
      <point x="196" y="24"/>
      <point x="129" y="33"/>
      <point x="57" y="57" type="curve"/>
      <point x="57" y="23" type="line"/>
      <point x="121" y="1"/>
      <point x="192" y="-9"/>
      <point x="253" y="-9" type="curve" smooth="yes"/>
    </contour>
    <contour>
      <point x="289" y="760" type="move" name="top"/>
    </contour>
    <contour>
      <point x="289" y="0" type="move" name="bottom"/>
    </contour>
  </outline>
</glyph>
<glyph name="T" format="1">
  <advance width="616"/>
  <unicode hex="0054"/>
  <outline>
    <contour>
      <point x="325" y="0" type="line"/>
      <point x="325" y="707" type="line"/>
      <point x="609" y="707" type="line"/>
      <point x="609" y="740" type="line"/>
      <point x="7" y="740" type="line"/>
      <point x="7" y="707" type="line"/>
      <point x="291" y="707" type="line"/>
      <point x="291" y="0" type="line"/>
    </contour>
    <contour>
      <point x="308" y="400" type="move" name="center"/>
    </contour>
    <contour>
      <point x="308" y="0" type="move" name="bottom"/>
    </contour>
    <contour>
      <point x="308" y="760" type="move" name="top"/>
    </contour>
  </outline>
</glyph>
<glyph name="U" format="1">
  <advance width="767"/>
  <unicode hex="0055"/>
  <outline>
    <contour>
      <point x="575" y="-9"/>
      <point x="666" y="77"/>
      <point x="666" y="283" type="curve" smooth="yes"/>
      <point x="666" y="740" type="line"/>
      <point x="633" y="740" type="line"/>
      <point x="633" y="278" type="line" smooth="yes"/>
      <point x="633" y="99"/>
      <point x="554" y="24"/>
      <point x="384" y="24" type="curve" smooth="yes"/>
      <point x="214" y="24"/>
      <point x="135" y="99"/>
      <point x="135" y="278" type="curve" smooth="yes"/>
      <point x="135" y="740" type="line"/>
      <point x="101" y="740" type="line"/>
      <point x="101" y="283" type="line" smooth="yes"/>
      <point x="101" y="77"/>
      <point x="193" y="-9"/>
      <point x="384" y="-9" type="curve" smooth="yes"/>
    </contour>
    <contour>
      <point x="460" y="2" type="move" name="ogonek"/>
    </contour>
    <contour>
      <point x="384" y="760" type="move" name="top"/>
    </contour>
    <contour>
      <point x="633" y="740" type="move" name="topright"/>
    </contour>
    <contour>
      <point x="384" y="0" type="move" name="bottom"/>
    </contour>
  </outline>
</glyph>
<glyph name="V" format="1">
  <advance width="691"/>
  <unicode hex="0056"/>
  <outline>
    <contour>
      <point x="369" y="0" type="line"/>
      <point x="682" y="740" type="line"/>
      <point x="646" y="740" type="line"/>
      <point x="343" y="20" type="line"/>
      <point x="351" y="20" type="line"/>
      <point x="47" y="740" type="line"/>
      <point x="9" y="740" type="line"/>
      <point x="322" y="0" type="line"/>
    </contour>
  </outline>
</glyph>
<glyph name="W" format="1">
  <advance width="1129"/>
  <unicode hex="0057"/>
  <outline>
    <contour>
      <point x="329" y="0" type="line"/>
      <point x="569" y="717" type="line"/>
      <point x="559" y="717" type="line"/>
      <point x="800" y="0" type="line"/>
      <point x="847" y="0" type="line"/>
      <point x="1090" y="740" type="line"/>
      <point x="1055" y="740" type="line"/>
      <point x="820" y="20" type="line"/>
      <point x="828" y="20" type="line"/>
      <point x="588" y="740" type="line"/>
      <point x="541" y="740" type="line"/>
      <point x="302" y="20" type="line"/>
      <point x="310" y="20" type="line"/>
      <point x="75" y="740" type="line"/>
      <point x="38" y="740" type="line"/>
      <point x="282" y="0" type="line"/>
    </contour>
    <contour>
      <point x="565" y="760" type="move" name="top"/>
    </contour>
    <contour>
      <point x="565" y="0" type="move" name="bottom"/>
    </contour>
  </outline>
</glyph>
<glyph name="X" format="1">
  <advance width="678"/>
  <unicode hex="0058"/>
  <outline>
    <contour>
      <point x="661" y="0" type="line"/>
      <point x="360" y="374" type="line"/>
      <point x="339" y="401" type="line"/>
      <point x="66" y="740" type="line"/>
      <point x="21" y="740" type="line"/>
      <point x="317" y="373" type="line"/>
      <point x="338" y="346" type="line"/>
      <point x="616" y="0" type="line"/>
    </contour>
    <contour>
      <point x="60" y="0" type="line"/>
      <point x="338" y="346" type="line"/>
      <point x="360" y="374" type="line"/>
      <point x="656" y="740" type="line"/>
      <point x="613" y="740" type="line"/>
      <point x="339" y="401" type="line"/>
      <point x="317" y="373" type="line"/>
      <point x="16" y="0" type="line"/>
    </contour>
  </outline>
</glyph>
<glyph name="Y" format="1">
  <advance width="616"/>
  <unicode hex="0059"/>
  <outline>
    <contour>
      <point x="325" y="0" type="line"/>
      <point x="325" y="353" type="line"/>
      <point x="315" y="326" type="line"/>
      <point x="623" y="740" type="line"/>
      <point x="581" y="740" type="line"/>
      <point x="299" y="358" type="line"/>
      <point x="319" y="358" type="line"/>
      <point x="33" y="740" type="line"/>
      <point x="-11" y="740" type="line"/>
      <point x="301" y="326" type="line"/>
      <point x="291" y="353" type="line"/>
      <point x="291" y="0" type="line"/>
    </contour>
    <contour>
      <point x="308" y="760" type="move" name="top"/>
    </contour>
    <contour>
      <point x="308" y="0" type="move" name="bottom"/>
    </contour>
    <contour>
      <point x="5" y="740" type="move" name="topleft"/>
    </contour>
  </outline>
</glyph>
<glyph name="Z" format="1">
  <advance width="622"/>
  <unicode hex="005A"/>
  <outline>
    <contour>
      <point x="590" y="0" type="line"/>
      <point x="590" y="32" type="line"/>
      <point x="67" y="32" type="line"/>
      <point x="73" y="20" type="line"/>
      <point x="583" y="720" type="line"/>
      <point x="583" y="740" type="line"/>
      <point x="39" y="740" type="line"/>
      <point x="39" y="708" type="line"/>
      <point x="548" y="708" type="line"/>
      <point x="542" y="720" type="line"/>
      <point x="32" y="20" type="line"/>
      <point x="32" y="0" type="line"/>
    </contour>
    <contour>
      <point x="311" y="760" type="move" name="top"/>
    </contour>
    <contour>
      <point x="311" y="0" type="move" name="bottom"/>
    </contour>
  </outline>
</glyph>
<glyph name="a" format="1">
  <advance width="547"/>
  <unicode hex="0061"/>
  <outline>
    <contour>
      <point x="311" y="-8"/>
      <point x="383" y="23"/>
      <point x="424" y="67" type="curve"/>
      <point x="428" y="67" type="line"/>
      <point x="431" y="0" type="line"/>
      <point x="461" y="0" type="line"/>
      <point x="461" y="369" type="line" smooth="yes"/>
      <point x="461" y="506"/>
      <point x="386" y="548"/>
      <point x="259" y="548" type="curve" smooth="yes"/>
      <point x="204" y="548"/>
      <point x="142" y="539"/>
      <point x="95" y="521" type="curve"/>
      <point x="95" y="487" type="line"/>
      <point x="154" y="508"/>
      <point x="213" y="515"/>
      <point x="260" y="515" type="curve" smooth="yes"/>
      <point x="366" y="515"/>
      <point x="427" y="486"/>
      <point x="427" y="368" type="curve" smooth="yes"/>
      <point x="427" y="109" type="line"/>
      <point x="375" y="53"/>
      <point x="307" y="25"/>
      <point x="236" y="25" type="curve" smooth="yes"/>
      <point x="143" y="25"/>
      <point x="101" y="67"/>
      <point x="101" y="136" type="curve" smooth="yes"/>
      <point x="101" y="203"/>
      <point x="144" y="239"/>
      <point x="258" y="253" type="curve" smooth="yes"/>
      <point x="446" y="276" type="line"/>
      <point x="448" y="309" type="line"/>
      <point x="259" y="286" type="line" smooth="yes"/>
      <point x="120" y="269"/>
      <point x="64" y="222"/>
      <point x="64" y="134" type="curve" smooth="yes"/>
      <point x="64" y="45"/>
      <point x="127" y="-8"/>
      <point x="236" y="-8" type="curve" smooth="yes"/>
    </contour>
    <contour>
      <point x="461" y="0" type="move" name="ogonek"/>
    </contour>
    <contour>
      <point x="284" y="0" type="move" name="bottom"/>
    </contour>
    <contour>
      <point x="272" y="600" type="move" name="top"/>
    </contour>
  </outline>
</glyph>
<glyph name="o" format="1">
  <advance width="596"/>
  <unicode hex="006F"/>
  <outline>
    <contour>
      <point x="438" y="-9"/>
      <point x="535" y="77"/>
      <point x="535" y="270" type="curve" smooth="yes"/>
      <point x="535" y="467"/>
      <point x="440" y="548"/>
      <point x="298" y="548" type="curve" smooth="yes"/>
      <point x="158" y="548"/>
      <point x="61" y="463"/>
      <point x="61" y="270" type="curve" smooth="yes"/>
      <point x="61" y="73"/>
      <point x="156" y="-9"/>
      <point x="298" y="-9" type="curve" smooth="yes"/>
    </contour>
    <contour>
      <point x="176" y="24"/>
      <point x="97" y="92"/>
      <point x="97" y="271" type="curve" smooth="yes"/>
      <point x="97" y="448"/>
      <point x="176" y="515"/>
      <point x="298" y="515" type="curve" smooth="yes"/>
      <point x="420" y="515"/>
      <point x="499" y="448"/>
      <point x="499" y="269" type="curve" smooth="yes"/>
      <point x="499" y="92"/>
      <point x="420" y="24"/>
      <point x="298" y="24" type="curve" smooth="yes"/>
    </contour>
    <contour>
      <point x="298" y="270" type="move" name="center"/>
    </contour>
    <contour>
      <point x="371" y="0" type="move" name="ogonek"/>
    </contour>
    <contour>
      <point x="298" y="600" type="move" name="top"/>
    </contour>
    <contour>
      <point x="367" y="540" type="move" name="topright"/>
    </contour>
    <contour>
      <point x="298" y="0" type="move" name="bottom"/>
    </contour>
  </outline>
</glyph>
<glyph name="AE" format="1">
  <advance width="976"/>
  <unicode hex="00C6"/>
  <outline>
    <contour>
      <point x="58" y="0" type="line"/>
      <point x="362" y="707" type="line"/>
      <point x="455" y="707" type="line"/>
      <point x="457" y="740" type="line"/>
      <point x="341" y="740" type="line"/>
      <point x="21" y="0" type="line"/>
    </contour>
    <contour>
      <point x="504" y="264" type="line"/>
      <point x="504" y="297" type="line"/>
      <point x="173" y="297" type="line"/>
      <point x="163" y="264" type="line"/>
    </contour>
    <contour>
      <point x="925" y="0" type="line"/>
      <point x="925" y="33" type="line"/>
      <point x="538" y="33" type="line"/>
      <point x="480" y="707" type="line"/>
      <point x="920" y="707" type="line"/>
      <point x="920" y="740" type="line"/>
      <point x="444" y="740" type="line"/>
      <point x="506" y="0" type="line"/>
    </contour>
    <contour>
      <point x="870" y="364" type="line"/>
      <point x="870" y="397" type="line"/>
      <point x="500" y="397" type="line"/>
      <point x="500" y="364" type="line"/>
    </contour>
    <contour>
      <point x="462" y="760" type="move" name="top"/>
    </contour>
    <contour>
      <point x="522" y="0" type="move" name="bottom"/>
    </contour>
  </outline>
</glyph>
<glyph name="Oslash" format="1">
  <advance width="780"/>
  <unicode hex="00D8"/>
  <outline>
    <component base="O"/>
    <component base="slashcomb.case" xOffset="-10"/>
    <contour>
      <point x="388" y="760" type="move" name="top"/>
    </contour>
    <contour>
      <point x="390" y="0" type="move" name="bottom"/>
    </contour>
  </outline>
</glyph>
<glyph name="Thorn" format="1">
  <advance width="656"/>
  <unicode hex="00DE"/>
  <outline>
    <contour>
      <point x="139" y="0" type="line"/>
      <point x="139" y="143" type="line"/>
      <point x="189" y="138"/>
      <point x="227" y="136"/>
      <point x="275" y="136" type="curve" smooth="yes"/>
      <point x="506" y="136"/>
      <point x="601" y="225"/>
      <point x="601" y="382" type="curve" smooth="yes"/>
      <point x="601" y="550"/>
      <point x="494" y="624"/>
      <point x="302" y="624" type="curve" smooth="yes"/>
      <point x="231" y="624"/>
      <point x="183" y="618"/>
      <point x="139" y="610" type="curve"/>
      <point x="139" y="741" type="line"/>
      <point x="105" y="741" type="line"/>
      <point x="105" y="0" type="line"/>
    </contour>
    <contour>
      <point x="223" y="169"/>
      <point x="182" y="172"/>
      <point x="139" y="178" type="curve"/>
      <point x="139" y="577" type="line"/>
      <point x="187" y="586"/>
      <point x="238" y="591"/>
      <point x="302" y="591" type="curve" smooth="yes"/>
      <point x="476" y="591"/>
      <point x="565" y="527"/>
      <point x="565" y="381" type="curve" smooth="yes"/>
      <point x="565" y="242"/>
      <point x="485" y="169"/>
      <point x="275" y="169" type="curve" smooth="yes"/>
    </contour>
  </outline>
</glyph>
<glyph name="OE" format="1">
  <advance width="1111"/>
  <unicode hex="0152"/>
  <outline>
    <contour>
      <point x="508" y="-5"/>
      <point x="591" y="0"/>
      <point x="640" y="0" type="curve" smooth="yes"/>
      <point x="1060" y="0" type="line"/>
      <point x="1060" y="33" type="line"/>
      <point x="634" y="33" type="line"/>
      <point x="634" y="707" type="line"/>
      <point x="1055" y="707" type="line"/>
      <point x="1055" y="740" type="line"/>
      <point x="630" y="740" type="line" smooth="yes"/>
      <point x="574" y="740"/>
      <point x="504" y="747"/>
      <point x="447" y="747" type="curve" smooth="yes"/>
      <point x="200" y="747"/>
      <point x="66" y="621"/>
      <point x="66" y="370" type="curve" smooth="yes"/>
      <point x="66" y="119"/>
      <point x="200" y="-5"/>
      <point x="451" y="-5" type="curve" smooth="yes"/>
    </contour>
    <contour>
      <point x="222" y="28"/>
      <point x="102" y="136"/>
      <point x="102" y="370" type="curve" smooth="yes"/>
      <point x="102" y="604"/>
      <point x="222" y="714"/>
      <point x="450" y="714" type="curve" smooth="yes"/>
      <point x="509" y="714"/>
      <point x="551" y="711"/>
      <point x="600" y="706" type="curve"/>
      <point x="600" y="34" type="line"/>
      <point x="567" y="30"/>
      <point x="520" y="28"/>
      <point x="450" y="28" type="curve" smooth="yes"/>
    </contour>
    <contour>
      <point x="1005" y="364" type="line"/>
      <point x="1005" y="397" type="line"/>
      <point x="630" y="397" type="line"/>
      <point x="630" y="364" type="line"/>
    </contour>
    <contour>
      <point x="617" y="760" type="move" name="top"/>
    </contour>
    <contour>
      <point x="617" y="0" type="move" name="bottom"/>
    </contour>
  </outline>
</glyph>
<glyph name="Schwa" format="1">
  <advance width="781"/>
  <unicode hex="018F"/>
  <outline>
    <contour>
      <point x="582" y="-9"/>
      <point x="715" y="98"/>
      <point x="715" y="369" type="curve" smooth="yes"/>
      <point x="715" y="637"/>
      <point x="560" y="749"/>
      <point x="316" y="749" type="curve" smooth="yes"/>
      <point x="244" y="749"/>
      <point x="173" y="742"/>
      <point x="100" y="722" type="curve"/>
      <point x="100" y="688" type="line"/>
      <point x="172" y="708"/>
      <point x="253" y="716"/>
      <point x="317" y="716" type="curve" smooth="yes"/>
      <point x="542" y="716"/>
      <point x="679" y="619"/>
      <point x="679" y="368" type="curve" smooth="yes"/>
      <point x="679" y="121"/>
      <point x="561" y="25"/>
      <point x="395" y="25" type="curve" smooth="yes"/>
      <point x="215" y="25"/>
      <point x="97" y="121"/>
      <point x="97" y="368" type="curve"/>
      <point x="79" y="357" type="line"/>
      <point x="694" y="357" type="line"/>
      <point x="694" y="390" type="line"/>
      <point x="61" y="390" type="line"/>
      <point x="61" y="360" type="line" smooth="yes"/>
      <point x="61" y="98"/>
      <point x="197" y="-9"/>
      <point x="395" y="-9" type="curve" smooth="yes"/>
    </contour>
    <contour>
      <point x="391" y="760" type="move" name="top"/>
    </contour>
    <contour>
      <point x="391" y="0" type="move" name="bottom"/>
    </contour>
  </outline>
</glyph>
<glyph name="Ohorn" format="1">
  <advance width="780"/>
  <unicode hex="01A0"/>
  <outline>
    <contour>
      <point x="581" y="-9"/>
      <point x="714" y="98"/>
      <point x="714" y="370" type="curve" smooth="yes"/>
      <point x="714" y="550"/>
      <point x="654" y="658"/>
      <point x="560" y="710" type="curve"/>
      <point x="562" y="702" type="line"/>
      <point x="663" y="702"/>
      <point x="714" y="746"/>
      <point x="714" y="816" type="curve" smooth="yes"/>
      <point x="714" y="846"/>
      <point x="710" y="865"/>
      <point x="701" y="888" type="curve"/>
      <point x="668" y="888" type="line"/>
      <point x="676" y="865"/>
      <point x="681" y="845"/>
      <point x="681" y="817" type="curve" smooth="yes"/>
      <point x="681" y="763"/>
      <point x="642" y="736"/>
      <point x="571" y="736" type="curve" smooth="yes"/>
      <point x="493" y="736"/>
      <point x="450" y="749"/>
      <point x="390" y="749" type="curve" smooth="yes"/>
      <point x="202" y="749"/>
      <point x="66" y="636"/>
      <point x="66" y="370" type="curve" smooth="yes"/>
      <point x="66" y="104"/>
      <point x="199" y="-9"/>
      <point x="390" y="-9" type="curve" smooth="yes"/>
    </contour>
    <contour>
      <point x="220" y="25"/>
      <point x="102" y="121"/>
      <point x="102" y="372" type="curve" smooth="yes"/>
      <point x="102" y="619"/>
      <point x="220" y="715"/>
      <point x="390" y="715" type="curve" smooth="yes"/>
      <point x="560" y="715"/>
      <point x="678" y="619"/>
      <point x="678" y="368" type="curve" smooth="yes"/>
      <point x="678" y="121"/>
      <point x="560" y="25"/>
      <point x="390" y="25" type="curve" smooth="yes"/>
    </contour>
    <contour>
      <point x="390" y="760" type="move" name="top"/>
    </contour>
    <contour>
      <point x="390" y="0" type="move" name="bottom"/>
    </contour>
  </outline>
</glyph>
<glyph name="Uhorn" format="1">
  <advance width="767"/>
  <unicode hex="01AF"/>
  <outline>
    <contour>
      <point x="793" y="846"/>
      <point x="789" y="865"/>
      <point x="780" y="888" type="curve"/>
      <point x="747" y="888" type="line"/>
      <point x="755" y="865"/>
      <point x="760" y="845"/>
      <point x="760" y="817" type="curve" smooth="yes"/>
      <point x="760" y="763"/>
      <point x="721" y="740"/>
      <point x="650" y="740" type="curve" smooth="yes"/>
      <point x="633" y="740" type="line"/>
      <point x="633" y="278" type="line" smooth="yes"/>
      <point x="633" y="99"/>
      <point x="554" y="24"/>
      <point x="384" y="24" type="curve" smooth="yes"/>
      <point x="214" y="24"/>
      <point x="135" y="99"/>
      <point x="135" y="278" type="curve" smooth="yes"/>
      <point x="135" y="740" type="line"/>
      <point x="101" y="740" type="line"/>
      <point x="101" y="283" type="line" smooth="yes"/>
      <point x="101" y="77"/>
      <point x="193" y="-9"/>
      <point x="384" y="-9" type="curve" smooth="yes"/>
      <point x="575" y="-9"/>
      <point x="666" y="77"/>
      <point x="666" y="283" type="curve" smooth="yes"/>
      <point x="666" y="708" type="line"/>
      <point x="748" y="711"/>
      <point x="793" y="751"/>
      <point x="793" y="816" type="curve" smooth="yes"/>
    </contour>
    <contour>
      <point x="384" y="760" type="move" name="top"/>
    </contour>
    <contour>
      <point x="384" y="0" type="move" name="bottom"/>
    </contour>
  </outline>
</glyph>
<glyph name="slashshortcomb" format="1">
  <advance width="400"/>
  <unicode hex="0337"/>
  <outline>
    <contour>
      <point x="308" y="451" type="line"/>
      <point x="289" y="475" type="line"/>
      <point x="94" y="323" type="line"/>
      <point x="113" y="299" type="line"/>
    </contour>
    <contour>
      <point x="200" y="387" type="move" name="_slash"/>
    </contour>
  </outline>
</glyph>
<glyph name="Germandbls" format="1">
  <advance width="917"/>
  <unicode hex="1E9E"/>
  <outline>
    <contour>
      <point x="772" y="-9"/>
      <point x="869" y="62"/>
      <point x="869" y="192" type="curve" smooth="yes"/>
      <point x="869" y="294"/>
      <point x="811" y="353"/>
      <point x="638" y="386" type="curve" smooth="yes"/>
      <point x="481" y="416"/>
      <point x="430" y="457"/>
      <point x="430" y="554" type="curve" smooth="yes"/>
      <point x="430" y="658"/>
      <point x="505" y="716"/>
      <point x="653" y="716" type="curve" smooth="yes"/>
      <point x="715" y="716"/>
      <point x="776" y="707"/>
      <point x="838" y="688" type="curve"/>
      <point x="838" y="722" type="line"/>
      <point x="781" y="740"/>
      <point x="718" y="749"/>
      <point x="655" y="749" type="curve" smooth="yes"/>
      <point x="481" y="749"/>
      <point x="394" y="672"/>
      <point x="394" y="552" type="curve" smooth="yes"/>
      <point x="394" y="441"/>
      <point x="457" y="387"/>
      <point x="631" y="352" type="curve" smooth="yes"/>
      <point x="782" y="322"/>
      <point x="833" y="283"/>
      <point x="833" y="191" type="curve" smooth="yes"/>
      <point x="833" y="82"/>
      <point x="756" y="24"/>
      <point x="600" y="24" type="curve" smooth="yes"/>
      <point x="542" y="24"/>
      <point x="475" y="33"/>
      <point x="403" y="57" type="curve"/>
      <point x="403" y="23" type="line"/>
      <point x="467" y="1"/>
      <point x="538" y="-9"/>
      <point x="599" y="-9" type="curve" smooth="yes"/>
    </contour>
    <contour>
      <point x="139" y="0" type="line"/>
      <point x="139" y="462" type="line" smooth="yes"/>
      <point x="139" y="641"/>
      <point x="218" y="716"/>
      <point x="388" y="716" type="curve" smooth="yes"/>
      <point x="436" y="716"/>
      <point x="476" y="710"/>
      <point x="510" y="698" type="curve"/>
      <point x="548" y="716" type="line"/>
      <point x="507" y="739"/>
      <point x="454" y="749"/>
      <point x="388" y="749" type="curve" smooth="yes"/>
      <point x="197" y="749"/>
      <point x="105" y="663"/>
      <point x="105" y="457" type="curve" smooth="yes"/>
      <point x="105" y="0" type="line"/>
    </contour>
  </outline>
</glyph>
<glyph name="slashcomb.case" format="1">
  <advance width="800"/>
  <outline>
    <contour>
      <point x="722" y="728" type="line"/>
      <point x="698" y="748" type="line"/>
      <point x="78" y="12" type="line"/>
      <point x="102" y="-8" type="line"/>
    </contour>
    <contour>
      <point x="400" y="370" type="move" name="_center"/>
    </contour>
  </outline>
</glyph>
<glyph name="slashcomb" format="1">
  <advance width="800"/>
  <outline>
    <contour>
      <point x="246" y="48" type="line"/>
      <point x="260" y="66" type="line"/>
      <point x="564" y="454" type="line"/>
      <point x="578" y="472" type="line"/>
      <point x="622" y="528" type="line"/>
      <point x="598" y="548" type="line"/>
      <point x="554" y="492" type="line"/>
      <point x="540" y="474" type="line"/>
      <point x="236" y="86" type="line"/>
      <point x="222" y="68" type="line"/>
      <point x="178" y="12" type="line"/>
      <point x="202" y="-8" type="line"/>
    </contour>
    <contour>
      <point x="400" y="270" type="move" name="_center"/>
    </contour>
  </outline>
</glyph>
<glyph name="slashshortcomb.case" format="1">
  <advance width="400"/>
  <outline>
    <contour>
      <point x="394" y="516" type="line"/>
      <point x="375" y="540" type="line"/>
      <point x="78" y="308" type="line"/>
      <point x="97" y="284" type="line"/>
    </contour>
    <contour>
      <point x="200" y="387" type="move" name="_slash"/>
    </contour>
  </outline>
</glyph>
<glyph name="strokelongcomb.case" format="1">
  <advance width="782"/>
  <outline>
    <contour>
      <point x="784" y="525" type="line"/>
      <point x="784" y="555" type="line"/>
      <point x="4" y="555" type="line"/>
      <point x="4" y="525" type="line"/>
    </contour>
    <contour>
      <point x="394" y="540" type="move" name="_center"/>
    </contour>
  </outline>
</glyph>
<glyph name="strokeshortcomb.d" format="1">
  <advance width="600"/>
  <outline>
    <contour>
      <point x="390" y="525" type="line"/>
      <point x="390" y="555" type="line"/>
      <point x="52" y="555" type="line"/>
      <point x="52" y="525" type="line"/>
    </contour>
    <contour>
      <point x="300" y="540" type="move" name="_stroke"/>
    </contour>
  </outline>
</glyph>
<glyph name="strokeshortcomb.h" format="1">
  <advance width="600"/>
  <outline>
    <contour>
      <point x="548" y="525" type="line"/>
      <point x="548" y="555" type="line"/>
      <point x="210" y="555" type="line"/>
      <point x="210" y="525" type="line"/>
    </contour>
    <contour>
      <point x="300" y="540" type="move" name="_stroke"/>
    </contour>
  </outline>
</glyph>
